<svg id="icon" xmlns="http://www.w3.org/2000/svg" width="16.997" height="16.952" viewBox="0 0 16.997 16.952">
  <g id="Gruppe_133" data-name="Gruppe 133">
    <path id="Pfad_93" data-name="Pfad 93" d="M8.5,16.952A8.476,8.476,0,1,1,17,8.5,8.46,8.46,0,0,1,8.5,16.952ZM8.5,1.78A6.719,6.719,0,1,0,15.217,8.5,6.741,6.741,0,0,0,8.5,1.78Z" fill="#aa2d57"/>
  </g>
  <g id="Gruppe_134" data-name="Gruppe 134" transform="translate(2.981 6.763)">
    <path id="Pfad_94" data-name="Pfad 94" d="M6.7,17.647V16.579L9.637,15.2v.845L7.367,17.113l2.269,1.068v.845Z" transform="translate(-6.7 -15.2)" fill="#aa2d57"/>
  </g>
  <g id="Gruppe_135" data-name="Gruppe 135" transform="translate(11.213 6.852)">
    <path id="Pfad_95" data-name="Pfad 95" d="M25.2,19.4v-.89L27.469,17.4,25.2,16.29V15.4l2.937,1.424v1.112Z" transform="translate(-25.2 -15.4)" fill="#aa2d57"/>
  </g>
  <g id="Gruppe_136" data-name="Gruppe 136" transform="translate(6.719 5.295)">
    <path id="Pfad_96" data-name="Pfad 96" d="M17.859,11.9h.979l-2.759,6.808H15.1Z" transform="translate(-15.1 -11.9)" fill="#aa2d57"/>
  </g>
</svg>
