<svg xmlns="http://www.w3.org/2000/svg" width="62.693" height="62.694" viewBox="0 0 62.693 62.694">
  <g id="Gruppe_4" data-name="Gruppe 4" transform="translate(0 0)">
    <path id="Pfad_3" data-name="Pfad 3" d="M61.823,8.891,53.808.875a3,3,0,0,0-4.235,0L34.483,15.966a.968.968,0,0,0,1.368,1.368L50.942,2.244a1.059,1.059,0,0,1,1.5,0l8.015,8.015a1.059,1.059,0,0,1,0,1.5l-1.967,1.967L53.334,8.57a.968.968,0,1,0-1.368,1.368l5.154,5.154L54.872,17.34l-2.265-2.265a.968.968,0,1,0-1.368,1.368L53.5,18.708l-2.247,2.247L48.992,18.69a.968.968,0,1,0-1.368,1.368l2.265,2.265-2.247,2.247-5.154-5.154a.968.968,0,1,0-1.368,1.368l5.154,5.154-2.247,2.247L41.76,25.922a.968.968,0,0,0-1.368,1.368l2.265,2.265-1.9,1.9-9.513-9.513,1.769-1.77a.968.968,0,0,0-1.368-1.368l-1.77,1.77L12.025,2.726a6.573,6.573,0,0,0-9.295,9.3L20.579,29.87l-19.7,19.7a3,3,0,0,0,0,4.235L8.9,61.817a2.994,2.994,0,0,0,4.235,0l19.7-19.7,1.4,1.4A.968.968,0,1,0,35.6,42.154l-1.936-1.936a.946.946,0,0,0-.3-.3L12.4,18.951l2.595-2.595,1.6,1.6a.968.968,0,1,0,1.368-1.368l-1.6-1.6,2.595-2.595L29.189,22.627h0L39.977,33.415a.871.871,0,0,0,.189.189L54.525,47.964l-2.595,2.595L37.443,36.071c-.009-.009-.017-.019-.026-.028L31.64,30.265l-.03-.027L21.4,20.033A.968.968,0,0,0,20.036,21.4L50.562,51.927l-2.595,2.595-9.2-9.2A.968.968,0,0,0,37.4,46.694l9.88,9.88a.978.978,0,0,0,.334.218l11.691,4.539A1.57,1.57,0,0,0,61.339,59.3L56.8,47.613a.979.979,0,0,0-.218-.334L42.124,32.825l19.7-19.7A3,3,0,0,0,61.823,8.891ZM31.461,40.752l-1.9,1.9L27.3,40.385a.968.968,0,0,0-1.368,1.368l2.265,2.265-2.247,2.247-5.154-5.154a.968.968,0,1,0-1.368,1.368l5.154,5.154-2.247,2.247-2.265-2.265A.968.968,0,1,0,18.7,48.985l2.265,2.265L18.715,53.5,16.45,51.232A.968.968,0,0,0,15.081,52.6l2.265,2.265L15.1,57.113,9.945,51.959a.968.968,0,1,0-1.368,1.368l5.154,5.154-1.967,1.967a1.059,1.059,0,0,1-1.5,0L2.251,52.433a1.06,1.06,0,0,1,0-1.5l19.7-19.7ZM4.1,10.653a4.637,4.637,0,0,1,6.558-6.558l3.058,3.058L7.157,13.711ZM14.308,14.3h0l-3.278,3.278-2.5-2.5,6.558-6.558,2.5,2.5ZM59.235,59.226l-9.534-3.7L55.529,49.7Z" transform="translate(-0.006 0)" fill="#aa2c57"/>
  </g>
</svg>
