<svg id="Gruppe_10" data-name="Gruppe 10" xmlns="http://www.w3.org/2000/svg" width="42.981" height="32.74" viewBox="0 0 42.981 32.74">
  <path id="Pfad_25" data-name="Pfad 25" d="M39.2,61H3.778A3.784,3.784,0,0,0,0,64.778V89.963A3.783,3.783,0,0,0,3.778,93.74H39.2a3.783,3.783,0,0,0,3.778-3.778V64.778A3.783,3.783,0,0,0,39.2,61Zm-.521,2.518L21.574,80.629,4.311,63.518ZM2.518,89.444V65.287L14.648,77.312ZM4.3,91.225l12.136-12.14L20.688,83.3a1.259,1.259,0,0,0,1.777,0l4.147-4.153,12.07,12.073ZM40.463,89.44,28.392,77.369,40.463,65.3Z" transform="translate(0 -61)" fill="#aa2c57"/>
</svg>
