<svg xmlns="http://www.w3.org/2000/svg" width="64.773" height="62.068" viewBox="0 0 64.773 62.068">
  <g id="support" transform="translate(0 -8.826)">
    <g id="Gruppe_5" data-name="Gruppe 5" transform="translate(0 8.826)">
      <path id="Pfad_6" data-name="Pfad 6" d="M41.648,51.856V50.728a11.753,11.753,0,0,0,.919-.834,16.758,16.758,0,0,0,4.242-9.341,8.238,8.238,0,0,0,5.32-3.163c1.778-2.513,1.937-6.13.454-10.665a1.226,1.226,0,0,0-.49-.637l-.674-.454a16.623,16.623,0,0,0-3.972-11.193c-3.3-3.715-8.361-5.59-15.066-5.615-6.693,0-11.769,1.9-15.066,5.566a16.623,16.623,0,0,0-3.972,11.193l-.674.454a1.226,1.226,0,0,0-.49.637c-1.483,4.56-1.324,8.152.454,10.665a8.262,8.262,0,0,0,5.32,3.2,16.771,16.771,0,0,0,4.254,9.354,11.96,11.96,0,0,0,.919.834v1.128C18.429,52.763-.315,57.164,0,69.668A1.226,1.226,0,0,0,1.23,70.894H63.543a1.226,1.226,0,0,0,1.226-1.226C65.088,57.164,46.343,52.763,41.648,51.856ZM17.216,37.807a5.321,5.321,0,0,1-2.6-1.9l.061.012c-1.226-1.79-1.336-4.5-.245-8.079l.895-.6a1.226,1.226,0,0,0,.539-1.14A14.49,14.49,0,0,1,19.2,16.01c2.771-3.138,7.221-4.708,13.179-4.732s10.408,1.594,13.228,4.732A14.49,14.49,0,0,1,48.942,26.1a1.226,1.226,0,0,0,.539,1.14l.895.6c1.091,3.567,1.018,6.289-.245,8.079a5.346,5.346,0,0,1-2.611,1.9,8.164,8.164,0,0,0,2-6.13,5.738,5.738,0,0,0-1.974-3.433C47.018,16,38.424,14.625,34.722,14.625a15.453,15.453,0,0,0-2.341.172,15.432,15.432,0,0,0-2.341-.172c-3.678,0-12.259,1.349-12.823,13.632a5.737,5.737,0,0,0-2,3.42A8.152,8.152,0,0,0,17.216,37.807Zm27.89-10.052a25.255,25.255,0,0,1-14.65-3.678,1.226,1.226,0,0,0-1.594.159c-2.452,2.636-6.926,3.249-9.084,3.384.662-8.667,5.909-10.555,10.322-10.555a11.85,11.85,0,0,1,2.1.172,1.223,1.223,0,0,0,.49,0,11.909,11.909,0,0,1,2.1-.172c4.377,0,9.648,1.937,10.261,10.678ZM20.207,38.04l.049.012a1.225,1.225,0,0,0-.306-.821c-1.68-1.925-2.452-3.678-2.243-5.124a3.249,3.249,0,0,1,1.116-2.072c1.618,0,7.355-.306,11.033-3.482A27.644,27.644,0,0,0,43.462,30.23a16.165,16.165,0,0,0,2.525-.135,3.236,3.236,0,0,1,1.1,2.01c.208,1.422-.564,3.2-2.243,5.124a1.225,1.225,0,0,0-.306.821v.637l-7.135,3.825a3.531,3.531,0,1,0,1.1,2.562q.008-.166,0-.331l5.627-3.016A13.486,13.486,0,0,1,40.851,48.2a10.923,10.923,0,0,1-8.128,3.04H32.11a10.948,10.948,0,0,1-8.116-3.028C20.121,44.353,20.207,38.1,20.207,38.04Zm15.851,7.037a1.091,1.091,0,1,1-1.091-1.091A1.091,1.091,0,0,1,36.058,45.076Zm-4.9,23.292H2.492c.968-9.207,15.937-13.056,20.62-14.049v2.194c0,2.783,3.384,4.9,8.042,5.259Zm-5.59-11.855V52.285a14.822,14.822,0,0,0,6.51,1.373h.613a14.822,14.822,0,0,0,6.51-1.373v4.229c0,1.165-2.66,2.844-6.816,2.844S25.564,57.679,25.564,56.514Zm8.042,11.891V61.761c4.658-.319,8.042-2.452,8.042-5.259V54.356c4.72.981,19.615,4.83,20.62,14.049H33.606Z" transform="translate(0 -8.826)" fill="#aa2c57"/>
    </g>
  </g>
</svg>
