<svg xmlns="http://www.w3.org/2000/svg" width="34.801" height="61.454" viewBox="0 0 34.801 61.454">
  <g id="icon" transform="translate(-5.951)">
    <path id="Pfad_7" data-name="Pfad 7" d="M36.28,0H10.423A4.473,4.473,0,0,0,5.951,4.477V56.982a4.47,4.47,0,0,0,4.472,4.472H36.28a4.473,4.473,0,0,0,4.472-4.472V4.477A4.476,4.476,0,0,0,36.28,0ZM16.971,2.719H29.736c.322,0,.584.481.584,1.077s-.262,1.079-.584,1.079H16.971c-.325,0-.582-.484-.582-1.079S16.647,2.719,16.971,2.719Zm6.382,54.317A2.855,2.855,0,1,1,26.2,54.178,2.859,2.859,0,0,1,23.354,57.036ZM37.4,47.252H9.3V7.554H37.4v39.7Z" transform="translate(0)" fill="#aa2c57"/>
  </g>
</svg>
