<svg xmlns="http://www.w3.org/2000/svg" width="60.494" height="63.862" viewBox="0 0 60.494 63.862">
  <g id="business" transform="translate(0)">
    <g id="Gruppe_7" data-name="Gruppe 7" transform="translate(19.957)">
      <g id="Gruppe_6" data-name="Gruppe 6" transform="translate(0)">
        <path id="Pfad_8" data-name="Pfad 8" d="M198.8.274A.941.941,0,0,0,198.134,0h-23.7a.937.937,0,0,0-.935.935V5.156a.935.935,0,1,0,1.871,0V1.871H197.2V19.958H185.661a.937.937,0,0,0-.347.067L180.36,22V20.893a.937.937,0,0,0-.935-.935h-4.054V8.9a.935.935,0,0,0-1.871,0v12a.935.935,0,0,0,.935.935h4.054v1.558a.935.935,0,0,0,.935.935.915.915,0,0,0,.347-.067l6.069-2.426h12.293a.935.935,0,0,0,.935-.935V.935A.937.937,0,0,0,198.8.274Z" transform="translate(-173.5 0)" fill="#aa2c57"/>
      </g>
    </g>
    <g id="Gruppe_9" data-name="Gruppe 9" transform="translate(31.182 24.564)">
      <g id="Gruppe_8" data-name="Gruppe 8">
        <path id="Pfad_9" data-name="Pfad 9" d="M288.134,225.635h-2.806v-2.071a10.886,10.886,0,0,0,3.74-8.215v-3.589c.731-3.677.4-6.4-1-8.1a4.672,4.672,0,0,0-2.744-1.633v-4.14a.935.935,0,0,0-.935-.935c-.355,0-.719,0-1.089,0-.387,0-.781,0-1.18,0-4.513,0-9.58.286-12.589,3.695-2.165,2.452-2.915,6.074-2.292,11.072v3.643a10.887,10.887,0,0,0,3.742,8.217v2.07h-2.806a4.683,4.683,0,0,0-4.677,4.677V235.3a.935.935,0,0,0,.935.935h27.44a.935.935,0,0,0,.935-.935v-4.984s0,0,0,0A4.683,4.683,0,0,0,288.134,225.635Zm-17.2-23.763c2.494-2.825,7.082-3.062,11.187-3.062.4,0,.786,0,1.17,0h.163v4.057a.928.928,0,0,0,.985.934,2.871,2.871,0,0,1,2.183,1.036,5.471,5.471,0,0,1,.95,3.524l-.407-.813a.935.935,0,0,0-1.121-.473c-.056.018-5.6,1.772-8.8,1.772a12.913,12.913,0,0,1-5.868-1.679.935.935,0,0,0-1.236.237l-1.235,1.646C268.837,205.892,269.515,203.482,270.937,201.872Zm-1.824,13.476v-3.441l2.048-2.731a14.3,14.3,0,0,0,6.091,1.546,36.772,36.772,0,0,0,8.6-1.627l1.351,2.7v3.551a9.043,9.043,0,0,1-18.086,0Zm14.345,9.533v1.188l-2.873,1.916-1.493-.746v-1.021A10.837,10.837,0,0,0,283.457,224.881Zm-6.237,1.337v.966l-2.023.809-2.342-1.873v-1.238A10.835,10.835,0,0,0,277.22,226.218Zm-3.742,8.148h-4.365v-1.871h4.365Zm17.462-4.053v4.053H275.349v-2.806a.935.935,0,0,0-.935-.935h-6.236a.935.935,0,0,0-.935.935v2.806h-1.871v-4.053a2.81,2.81,0,0,1,2.806-2.806h3.414l2.863,2.289c.008.007.018.011.026.017.026.02.053.038.082.054l.051.029c.027.014.054.025.082.036s.037.015.056.022a.928.928,0,0,0,.094.024l.047.011a.928.928,0,0,0,.147.012.955.955,0,0,0,.1-.006l.017,0q.038,0,.077-.013l.031-.008.06-.017.039-.013.024-.008,2.727-1.091,2.121,1.059c.014.007.029.012.044.019l.051.022c.023.009.047.015.07.022l.034.01a.957.957,0,0,0,.1.018h.008a.944.944,0,0,0,.111.007.931.931,0,0,0,.131-.009c.019,0,.038-.008.056-.012s.048-.009.071-.016.038-.013.056-.02.047-.016.069-.026l.049-.025c.024-.013.049-.026.072-.04l.015-.009,3.5-2.337h3.459a2.81,2.81,0,0,1,2.806,2.8S290.94,230.311,290.94,230.312Z" transform="translate(-263.5 -196.939)" fill="#aa2c57"/>
      </g>
    </g>
    <g id="Gruppe_11" data-name="Gruppe 11" transform="translate(0 24.857)">
      <g id="Gruppe_10" data-name="Gruppe 10" transform="translate(0)">
        <path id="Pfad_10" data-name="Pfad 10" d="M38.134,227.688H34.081v-1.129a10.91,10.91,0,0,0,4.988-9.158V215.34l1.244.444a.935.935,0,0,0,1.25-.881c0-5.614-1.081-9.783-3.213-12.39a8.792,8.792,0,0,0-7.155-3.228,18.658,18.658,0,0,0-7.93,2.1l-2.192-1.044a.935.935,0,0,0-.871.035c-.375.217-3.641,2.364-2.961,10.823V217.4a10.91,10.91,0,0,0,4.989,9.159v1.128H18.177a4.683,4.683,0,0,0-4.677,4.677v4.989a.935.935,0,0,0,.935.935h27.44a.935.935,0,0,0,.935-.935V232.37s0,0,0,0A4.683,4.683,0,0,0,38.134,227.688Zm-17.31-25.4,2.065.983a.936.936,0,0,0,.868-.033,17.323,17.323,0,0,1,7.439-2.085c5.356,0,8.2,4.175,8.476,12.412l-16.191-5.782a.936.936,0,0,0-.733.044l-3.717,1.858C18.9,205,20.191,202.989,20.824,202.292ZM19.113,217.4v-5.662l4.115-2.057,13.971,4.99v2.73a9.043,9.043,0,0,1-18.086,0Zm13.1,10.129v1.092h0a4.054,4.054,0,1,1-8.107,0v-1.092a10.913,10.913,0,0,0,8.108,0Zm8.73,4.835v4.053H15.371v-4.053a2.81,2.81,0,0,1,2.806-2.806h4.128a5.924,5.924,0,0,0,11.7,0h4.128a2.81,2.81,0,0,1,2.806,2.8Z" transform="translate(-13.5 -199.285)" fill="#aa2c57"/>
      </g>
    </g>
    <g id="Gruppe_13" data-name="Gruppe 13" transform="translate(28.688 3.741)">
      <g id="Gruppe_12" data-name="Gruppe 12">
        <path id="Pfad_11" data-name="Pfad 11" d="M250.42,31.177a4.054,4.054,0,0,0-6.92,2.866.935.935,0,0,0,1.871,0h0a2.18,2.18,0,1,1,2.195,2.185h-.012a.937.937,0,0,0-.935.937v2.495a.935.935,0,0,0,1.871,0V37.989h0a4.054,4.054,0,0,0,1.931-6.811Z" transform="translate(-243.5 -29.99)" fill="#aa2c57"/>
      </g>
    </g>
    <g id="Gruppe_15" data-name="Gruppe 15" transform="translate(31.806 14.968)">
      <g id="Gruppe_14" data-name="Gruppe 14">
        <path id="Pfad_12" data-name="Pfad 12" d="M269.435,120a.936.936,0,0,0-.935.935v1.246a.935.935,0,0,0,1.871,0v-1.246A.937.937,0,0,0,269.435,120Z" transform="translate(-268.5 -120)" fill="#aa2c57"/>
      </g>
    </g>
  </g>
</svg>
