<svg xmlns="http://www.w3.org/2000/svg" width="69.394" height="69.395" viewBox="0 0 69.394 69.395">
  <g id="Gruppe_94" data-name="Gruppe 94" transform="translate(-126 -1599.089)">
    <g id="Gruppe_78" data-name="Gruppe 78" transform="translate(126 1599.089)">
      <g id="Gruppe_16" data-name="Gruppe 16" transform="translate(0)">
        <path id="Pfad_13" data-name="Pfad 13" d="M53.492,0H4.338A4.337,4.337,0,0,0,0,4.337v34.7a4.337,4.337,0,0,0,4.337,4.337H23.132V40.48H4.338a1.446,1.446,0,0,1-1.446-1.446V4.337A1.446,1.446,0,0,1,4.338,2.891H53.492a1.446,1.446,0,0,1,1.446,1.446V30.36H57.83V4.337A4.337,4.337,0,0,0,53.492,0Z" transform="translate(-0.001)" fill="#aa2c57"/>
      </g>
    </g>
    <g id="Gruppe_81" data-name="Gruppe 81" transform="translate(143.349 1641.015)">
      <g id="Gruppe_18" data-name="Gruppe 18">
        <rect id="Rechteck_26" data-name="Rechteck 26" width="2.891" height="8.674" fill="#aa2c57"/>
      </g>
    </g>
    <g id="Gruppe_79" data-name="Gruppe 79" transform="translate(131.783 1629.449)">
      <g id="Gruppe_20" data-name="Gruppe 20">
        <path id="Pfad_14" data-name="Pfad 14" d="M47.005,228.337a1.446,1.446,0,0,1-1.446-1.446V224H42.668v2.891a4.337,4.337,0,0,0,4.337,4.337H49.9v-2.891Z" transform="translate(-42.668 -224)" fill="#aa2c57"/>
      </g>
    </g>
    <g id="Gruppe_80" data-name="Gruppe 80" transform="translate(131.783 1623.666)">
      <g id="Gruppe_22" data-name="Gruppe 22">
        <rect id="Rechteck_27" data-name="Rechteck 27" width="2.891" height="2.891" fill="#aa2c57"/>
      </g>
    </g>
    <g id="Gruppe_82" data-name="Gruppe 82" transform="translate(152.021 1625.11)">
      <g id="Gruppe_24" data-name="Gruppe 24">
        <path id="Pfad_15" data-name="Pfad 15" d="M218.8,196.591a15.708,15.708,0,1,0,0,22.214A15.708,15.708,0,0,0,218.8,196.591Zm-11.116,23.924A12.816,12.816,0,1,1,220.506,207.7,12.816,12.816,0,0,1,207.686,220.514Z" transform="translate(-191.986 -191.989)" fill="#aa2c57"/>
      </g>
    </g>
    <g id="Gruppe_91" data-name="Gruppe 91" transform="translate(179.395 1652.482)">
      <g id="Gruppe_26" data-name="Gruppe 26">
        <path id="Pfad_16" data-name="Pfad 16" d="M409.532,403.437l-9.075-9.072a1.445,1.445,0,0,0-2.044,0l-4.034,4.034a1.446,1.446,0,0,0,0,2.044l9.075,9.076a1.445,1.445,0,0,0,1.022.424h0a1.446,1.446,0,0,0,1.022-.428l4.034-4.034A1.446,1.446,0,0,0,409.532,403.437Zm-5.056,3.016-7.03-7.032,1.989-1.989,7.031,7.032Z" transform="translate(-393.956 -393.942)" fill="#aa2c57"/>
      </g>
    </g>
    <g id="Gruppe_92" data-name="Gruppe 92" transform="translate(176.792 1649.88)">
      <g id="Gruppe_28" data-name="Gruppe 28" transform="translate(0 0)">
        <rect id="Rechteck_28" data-name="Rechteck 28" width="2.891" height="7.13" transform="translate(0 2.044) rotate(-45)" fill="#aa2c57"/>
      </g>
    </g>
    <g id="Gruppe_90" data-name="Gruppe 90" transform="translate(167.926 1630.895)">
      <g id="Gruppe_30" data-name="Gruppe 30">
        <path id="Pfad_17" data-name="Pfad 17" d="M309.334,234.667v2.891a7.237,7.237,0,0,1,7.228,7.229h2.891A10.131,10.131,0,0,0,309.334,234.667Z" transform="translate(-309.334 -234.667)" fill="#aa2c57"/>
      </g>
    </g>
    <g id="Gruppe_83" data-name="Gruppe 83" transform="translate(140.457 1648.243)">
      <g id="Gruppe_32" data-name="Gruppe 32">
        <rect id="Rechteck_29" data-name="Rechteck 29" width="11.566" height="2.891" fill="#aa2c57"/>
      </g>
    </g>
    <g id="Gruppe_84" data-name="Gruppe 84" transform="translate(143.349 1604.872)">
      <g id="Gruppe_34" data-name="Gruppe 34">
        <path id="Pfad_18" data-name="Pfad 18" d="M132.338,42.667A4.337,4.337,0,1,0,136.675,47,4.337,4.337,0,0,0,132.338,42.667Zm0,5.783A1.446,1.446,0,1,1,133.784,47,1.446,1.446,0,0,1,132.338,48.45Z" transform="translate(-128.001 -42.667)" fill="#aa2c57"/>
      </g>
    </g>
    <g id="Gruppe_87" data-name="Gruppe 87" transform="translate(153.469 1614.992)">
      <g id="Gruppe_36" data-name="Gruppe 36">
        <path id="Pfad_19" data-name="Pfad 19" d="M207.005,117.333a4.337,4.337,0,1,0,4.337,4.337A4.337,4.337,0,0,0,207.005,117.333Zm0,5.783a1.446,1.446,0,1,1,1.446-1.446A1.446,1.446,0,0,1,207.005,123.116Z" transform="translate(-202.668 -117.333)" fill="#aa2c57"/>
      </g>
    </g>
    <g id="Gruppe_85" data-name="Gruppe 85" transform="translate(137.989 1609.633)">
      <g id="Gruppe_38" data-name="Gruppe 38" transform="translate(0 0)">
        <rect id="Rechteck_30" data-name="Rechteck 30" width="10.223" height="2.891" transform="translate(0 7.228) rotate(-45)" fill="#aa2c57"/>
      </g>
    </g>
    <g id="Gruppe_86" data-name="Gruppe 86" transform="translate(148.103 1609.637)">
      <g id="Gruppe_40" data-name="Gruppe 40" transform="translate(0 0)">
        <rect id="Rechteck_31" data-name="Rechteck 31" width="2.891" height="10.223" transform="translate(0 2.044) rotate(-45)" fill="#aa2c57"/>
      </g>
    </g>
    <g id="Gruppe_89" data-name="Gruppe 89" transform="translate(163.589 1604.872)">
      <g id="Gruppe_42" data-name="Gruppe 42">
        <path id="Pfad_20" data-name="Pfad 20" d="M281.671,42.667A4.337,4.337,0,1,0,286.008,47,4.337,4.337,0,0,0,281.671,42.667Zm0,5.783A1.446,1.446,0,1,1,283.117,47,1.446,1.446,0,0,1,281.671,48.45Z" transform="translate(-277.334 -42.667)" fill="#aa2c57"/>
      </g>
    </g>
    <g id="Gruppe_88" data-name="Gruppe 88" transform="translate(158.228 1609.638)">
      <g id="Gruppe_44" data-name="Gruppe 44" transform="translate(0 0)">
        <rect id="Rechteck_32" data-name="Rechteck 32" width="10.223" height="2.891" transform="translate(0 7.228) rotate(-45)" fill="#aa2c57"/>
      </g>
    </g>
  </g>
</svg>
