<svg id="map-icon" xmlns="http://www.w3.org/2000/svg" width="38.329" height="47.413" viewBox="0 0 38.329 47.413">
  <g id="Gruppe_12" data-name="Gruppe 12">
    <g id="Gruppe_11" data-name="Gruppe 11">
      <path id="Pfad_26" data-name="Pfad 26" d="M80.164,0C69.6,0,61,8.1,61,18.058c0,6.428,2.075,9.006,12.047,21.392,1.731,2.15,3.693,4.587,5.938,7.407a1.529,1.529,0,0,0,2.359,0c2.232-2.8,4.185-5.233,5.909-7.375,10-12.423,12.076-15.008,12.076-21.425C99.329,8.1,90.732,0,80.164,0ZM84.9,37.8c-1.416,1.759-2.986,3.711-4.739,5.907C78.4,41.5,76.82,39.539,75.4,37.771c-9.7-12.049-11.448-14.22-11.448-19.713,0-8.425,7.275-15.28,16.216-15.28S96.38,9.633,96.38,18.058C96.38,23.54,94.628,25.718,84.9,37.8Z" transform="translate(-61)" fill="#aa2c57"/>
    </g>
  </g>
  <g id="Gruppe_14" data-name="Gruppe 14" transform="translate(8.845 7.979)">
    <g id="Gruppe_13" data-name="Gruppe 13">
      <path id="Pfad_27" data-name="Pfad 27" d="M161.319,90a10.319,10.319,0,1,0,10.319,10.319A10.319,10.319,0,0,0,161.319,90Zm0,17.69a7.371,7.371,0,1,1,7.371-7.371,7.371,7.371,0,0,1-7.371,7.371Z" transform="translate(-151 -90)" fill="#aa2c57"/>
    </g>
  </g>
</svg>
