<svg id="linkedin-logo" xmlns="http://www.w3.org/2000/svg" width="28.553" height="27.284" viewBox="0 0 28.553 27.284">
  <path id="LinkedIn" d="M28.553,26.286V36.842h-6.12V26.993c0-2.474-.885-4.163-3.1-4.163a3.349,3.349,0,0,0-3.14,2.239,4.187,4.187,0,0,0-.2,1.492V36.842H9.868s.082-16.681,0-18.41h6.121v2.609c-.012.02-.029.041-.04.059h.04v-.059A6.078,6.078,0,0,1,21.506,18C25.533,18,28.553,20.631,28.553,26.286ZM3.464,9.558a3.19,3.19,0,1,0-.081,6.363h.041a3.191,3.191,0,1,0,.04-6.363ZM.364,36.842h6.12V18.432H.364Z" transform="translate(0 -9.558)" fill="#aa2c57"/>
</svg>
