<?xml version="1.0" encoding="utf-8"?>
<!-- Generator: Adobe Illustrator 23.0.4, SVG Export Plug-In . SVG Version: 6.00 Build 0)  -->
<svg version="1.1" id="Layer_1" xmlns="http://www.w3.org/2000/svg" xmlns:xlink="http://www.w3.org/1999/xlink" x="0px" y="0px"
	 viewBox="0 0 76.3 22.8" style="enable-background:new 0 0 76.3 22.8;" xml:space="preserve">
<style type="text/css">
	.st0{fill:#1D1D1B;}
</style>
<title>logo2</title>
<path class="st0" d="M4.5,22.5H0V2.1h4.5v9.1L11,2.1h5.8L8.9,12.3L17,22.5H11l-6.5-9.1L4.5,22.5z"/>
<path class="st0" d="M32.8,15.9c0,4.2-3.3,6.9-7.5,6.9s-7.6-2.6-7.6-6.9S21.2,9,25.3,9S32.8,11.8,32.8,15.9z M28.4,15.9
	c0-1.6-0.7-3.4-3.1-3.4s-3.1,1.8-3.1,3.4s0.7,3.4,3.1,3.4S28.4,17.6,28.4,15.9L28.4,15.9z"/>
<path class="st0" d="M50.5,22.5h-4.5v-1.6c-0.9,1.4-2.9,1.9-4.5,1.9c-3.8-0.1-6.8-3.4-6.7-7.2c0.1-3.6,3-6.5,6.7-6.7
	c1.7-0.1,3.4,0.6,4.5,1.9V0h4.5L50.5,22.5z M42.9,12.6c-1.8-0.1-3.4,1.3-3.4,3.1c-0.1,1.8,1.3,3.4,3.1,3.4c1.8,0.1,3.4-1.3,3.4-3.1
	c0,0,0-0.1,0-0.1C46.1,14.1,44.7,12.6,42.9,12.6z"/>
<path class="st0" d="M68.4,16.4H58.2c-0.1,1.7,1.2,3.1,2.8,3.1c0,0,0,0,0,0c1.3,0.1,2.4-0.7,2.6-2h4.6c-0.8,3.5-3.6,5.2-7.1,5.2
	c-4.6,0-7.7-2.7-7.7-6.9S56.7,9,61.1,9c4,0,7.4,2.4,7.4,6.6C68.5,15.9,68.4,16.2,68.4,16.4z M64.1,14.3c-0.2-1.5-1.5-2.6-2.9-2.5
	c-1.5-0.2-2.8,0.9-3,2.4c0,0,0,0,0,0H64.1z"/>
<path class="st0" d="M73.7,17.5c1.5,0,2.6,1.2,2.6,2.6c0,1.5-1.2,2.6-2.6,2.6c-1.4,0-2.6-1.2-2.6-2.6C71.1,18.8,72.2,17.6,73.7,17.5
	C73.7,17.6,73.7,17.6,73.7,17.5z"/>
</svg>
