<svg id="scrum-icon" xmlns="http://www.w3.org/2000/svg" width="243.478" height="125.628" viewBox="0 0 243.478 125.628">
  <g id="Gruppe_122" data-name="Gruppe 122" transform="translate(206.676 100.62)">
    <path id="Pfad_55" data-name="Pfad 55" d="M248.271,122.863v1.422h0a2.584,2.584,0,0,1,1-1.255,2.249,2.249,0,0,1,1.506-.335v1.171a4.936,4.936,0,0,0-1.171.167,1.335,1.335,0,0,0-.753.585,2.616,2.616,0,0,0-.418.836,4.936,4.936,0,0,0-.167,1.171v3.095H247.1v-6.942h1.171Z" transform="translate(-247.1 -120.688)" fill="#aa2d57"/>
    <path id="Pfad_56" data-name="Pfad 56" d="M257.186,129.308a2.932,2.932,0,0,1-1.924.585,3.6,3.6,0,0,1-1.422-.251,2.283,2.283,0,0,1-1-.753,2.583,2.583,0,0,1-.585-1.171,4.154,4.154,0,0,1,0-2.844,5.332,5.332,0,0,1,.669-1.171,2.885,2.885,0,0,1,1-.753,3.185,3.185,0,0,1,1.338-.251,2.931,2.931,0,0,1,2.509,1.422,3.944,3.944,0,0,1,.5,1.255,3.725,3.725,0,0,1,.084,1.338h-5.186a2.578,2.578,0,0,0,.084.836,3.39,3.39,0,0,0,.418.753,1.3,1.3,0,0,0,.669.5,3.119,3.119,0,0,0,1,.167,1.77,1.77,0,0,0,1.171-.335,1.551,1.551,0,0,0,.585-1h1.087A2.609,2.609,0,0,1,257.186,129.308Zm-.335-4.433a1.5,1.5,0,0,0-.418-.585,2.541,2.541,0,0,0-.585-.418,2.442,2.442,0,0,0-.753-.167,2.474,2.474,0,0,0-.836.167,1.5,1.5,0,0,0-.585.418,2.542,2.542,0,0,0-.418.585,2.442,2.442,0,0,0-.167.753H257.1A2.657,2.657,0,0,0,256.851,124.875Z" transform="translate(-247.902 -120.693)" fill="#aa2d57"/>
    <path id="Pfad_57" data-name="Pfad 57" d="M262.071,122.867v.92h0a1.52,1.52,0,0,1,.92-.836,3.467,3.467,0,0,1,1.338-.251,2.749,2.749,0,0,1,1.422.335,2.459,2.459,0,0,1,1,.836,3.09,3.09,0,0,1,.585,1.171,3.912,3.912,0,0,1,.167,1.422,8.237,8.237,0,0,1-.167,1.422,5.11,5.11,0,0,1-.585,1.171,2.283,2.283,0,0,1-1,.753,3.6,3.6,0,0,1-1.422.251,1.633,1.633,0,0,1-.585-.084,1.209,1.209,0,0,1-.586-.167,2.1,2.1,0,0,1-.586-.335l-.5-.5h0v3.6H260.9v-9.535h1.171Zm4.1,2.426a2.617,2.617,0,0,0-.418-.836,2.255,2.255,0,0,0-.669-.585,1.686,1.686,0,0,0-.92-.251,1.987,1.987,0,0,0-1,.251,2.254,2.254,0,0,0-.669.585,2.505,2.505,0,0,0-.335.836,3.752,3.752,0,0,0-.084.92,4.073,4.073,0,0,0,.084,1,1.594,1.594,0,0,0,.418.836,2.255,2.255,0,0,0,.669.585,2.133,2.133,0,0,0,2.007,0,2.255,2.255,0,0,0,.669-.585,2.5,2.5,0,0,0,.335-.836,4.07,4.07,0,0,0,.084-1C266.253,125.962,266.253,125.627,266.169,125.293Z" transform="translate(-249.358 -120.693)" fill="#aa2d57"/>
    <path id="Pfad_58" data-name="Pfad 58" d="M275.186,129.308a2.932,2.932,0,0,1-1.924.585,3.6,3.6,0,0,1-1.422-.251,2.284,2.284,0,0,1-1-.753,2.583,2.583,0,0,1-.585-1.171,4.154,4.154,0,0,1,0-2.844,5.333,5.333,0,0,1,.669-1.171,2.885,2.885,0,0,1,1-.753,3.185,3.185,0,0,1,1.338-.251,2.931,2.931,0,0,1,2.509,1.422,3.944,3.944,0,0,1,.5,1.255,3.725,3.725,0,0,1,.084,1.338h-5.186a2.578,2.578,0,0,0,.084.836,3.389,3.389,0,0,0,.418.753,1.3,1.3,0,0,0,.669.5,3.119,3.119,0,0,0,1,.167,1.77,1.77,0,0,0,1.171-.335,1.551,1.551,0,0,0,.586-1h1.087A2.084,2.084,0,0,1,275.186,129.308Zm-.251-4.433a1.5,1.5,0,0,0-.418-.585,2.541,2.541,0,0,0-.585-.418,2.442,2.442,0,0,0-.753-.167,2.475,2.475,0,0,0-.836.167,1.5,1.5,0,0,0-.585.418,2.542,2.542,0,0,0-.418.585,2.442,2.442,0,0,0-.167.753h4.015Z" transform="translate(-250.846 -120.693)" fill="#aa2d57"/>
    <path id="Pfad_59" data-name="Pfad 59" d="M285.024,129.709a2.1,2.1,0,0,1-.836.167.823.823,0,0,1-.669-.251,1.11,1.11,0,0,1-.251-.836,3.564,3.564,0,0,1-3.346,1,2.971,2.971,0,0,1-.753-.335,3.638,3.638,0,0,1-.5-.585,1.518,1.518,0,0,1-.167-.92,3.119,3.119,0,0,1,.167-1,3.638,3.638,0,0,1,.5-.585,3.8,3.8,0,0,1,1.589-.5c.335-.084.586-.084.92-.167a2.442,2.442,0,0,0,.753-.167,1.363,1.363,0,0,0,.5-.251.707.707,0,0,0,.167-.5,1.209,1.209,0,0,0-.167-.585c-.084-.167-.251-.251-.335-.335a1.189,1.189,0,0,0-.5-.167h-.5a2.215,2.215,0,0,0-1.171.251,1.011,1.011,0,0,0-.5,1h-1.171a2.316,2.316,0,0,1,.251-1.087,1.9,1.9,0,0,1,.669-.753,3.092,3.092,0,0,1,.92-.418,4.769,4.769,0,0,1,1.087-.084,3.431,3.431,0,0,1,.92.084c.335.084.586.167.836.251a1.954,1.954,0,0,1,.585.585,1.784,1.784,0,0,1,.251,1v3.513c0,.251,0,.5.084.585,0,.084.167.167.335.167a.5.5,0,0,0,.335-.084Zm-1.84-3.513a4.08,4.08,0,0,1-.586.251,2.316,2.316,0,0,1-.753.084c-.251,0-.5.084-.753.084a1.575,1.575,0,0,0-.669.167,2.217,2.217,0,0,0-.5.418.9.9,0,0,0-.167.669,1.061,1.061,0,0,0,.084.5.653.653,0,0,0,.335.335.639.639,0,0,0,.418.167c.167,0,.335.084.5.084a4.2,4.2,0,0,0,1-.167,1.32,1.32,0,0,0,.669-.418c.167-.167.335-.335.335-.5a1.06,1.06,0,0,0,.084-.5Z" transform="translate(-252.237 -120.676)" fill="#aa2d57"/>
    <path id="Pfad_60" data-name="Pfad 60" d="M290.4,122.475v1h-1.338v4.6a.18.18,0,0,0,.167.167.307.307,0,0,0,.251.084h.92v1h-.836a1.856,1.856,0,0,1-.753-.084.506.506,0,0,1-.5-.251c-.084-.167-.251-.251-.251-.418a1.856,1.856,0,0,1-.084-.753v-4.433H286.8v-1h1.171V120.3h1.171v2.091H290.4Z" transform="translate(-253.595 -120.3)" fill="#aa2d57"/>
  </g>
  <g id="Gruppe_123" data-name="Gruppe 123" transform="translate(57.377 48.344)">
    <path id="Pfad_61" data-name="Pfad 61" d="M76.211,58l5.52,14.219H79.641l-1.506-4.266H72.113l-1.589,4.266H68.6L74.12,58Zm1.255,8.364-2.342-6.608h0L72.7,66.364Z" transform="translate(-68.6 -57.833)"/>
    <path id="Pfad_62" data-name="Pfad 62" d="M94.4,72.019a6.712,6.712,0,0,1-2.509.5,6.182,6.182,0,0,1-2.844-.585,6.6,6.6,0,0,1-2.091-1.589,7.684,7.684,0,0,1-1.338-2.258,7.186,7.186,0,0,1-.418-2.676,11.248,11.248,0,0,1,.418-2.927,6.1,6.1,0,0,1,1.255-2.426,6.842,6.842,0,0,1,2.091-1.673,6.544,6.544,0,0,1,2.927-.585,9.117,9.117,0,0,1,2.175.251,7.321,7.321,0,0,1,1.84.836,5.419,5.419,0,0,1,1.338,1.422A7.37,7.37,0,0,1,98,62.484H96.073a3.588,3.588,0,0,0-1.422-2.426,4.371,4.371,0,0,0-1.255-.585,4.631,4.631,0,0,0-1.506-.167,4.98,4.98,0,0,0-2.258.5,5.771,5.771,0,0,0-1.506,1.338,4.5,4.5,0,0,0-.836,1.924,10.382,10.382,0,0,0-.251,2.258,6.552,6.552,0,0,0,.335,2.175,7.579,7.579,0,0,0,.92,1.84A5.478,5.478,0,0,0,89.8,70.6a4.3,4.3,0,0,0,2.091.5,5.061,5.061,0,0,0,2.007-.335,3.634,3.634,0,0,0,1.422-1,4.553,4.553,0,0,0,.92-1.506,6.523,6.523,0,0,0,.251-1.84H91.975V64.826h6.273v7.528H97.077l-.5-1.756A7.518,7.518,0,0,1,94.4,72.019Z" transform="translate(-71.316 -57.8)"/>
    <path id="Pfad_63" data-name="Pfad 63" d="M106.024,58V72.219H104.1V58Z" transform="translate(-74.408 -57.833)"/>
    <path id="Pfad_64" data-name="Pfad 64" d="M112.124,58V70.63h7.528v1.589H110.2V58Z" transform="translate(-75.406 -57.833)"/>
    <path id="Pfad_65" data-name="Pfad 65" d="M133.27,58v1.589h-7.946v4.517h7.36v1.589h-7.36V70.63h7.946v1.589H123.4V58Z" transform="translate(-77.565 -57.833)"/>
  </g>
  <path id="Pfad_66" data-name="Pfad 66" d="M211.9,104.5v38.224l23.921-19.07Z" transform="translate(-34.666 -17.096)" fill="#aa2d57"/>
  <path id="Pfad_67" data-name="Pfad 67" d="M199.651,117.3H157.663A71.965,71.965,0,0,1,131.4,134.112h68.251Z" transform="translate(-21.496 -19.19)" fill="#aa2d57"/>
  <path id="Pfad_68" data-name="Pfad 68" d="M102.624,117.3h0Z" transform="translate(-16.474 -19.19)" fill="#fff"/>
  <path id="Pfad_69" data-name="Pfad 69" d="M85.23,0A57.907,57.907,0,0,0,39.478,93.259H65.992A40.242,40.242,0,1,1,86.986,98.11H0v16.812H94.43A57.832,57.832,0,0,0,85.23,0Z" fill="#aa2d57"/>
  <path id="Pfad_70" data-name="Pfad 70" d="M103.836,117.3Z" transform="translate(-16.85 -19.19)" fill="#fff"/>
  <g id="Gruppe_124" data-name="Gruppe 124" transform="translate(11.626 101.456)">
    <path id="Pfad_71" data-name="Pfad 71" d="M18.584,129.88v-.836h0a1.641,1.641,0,0,1-.753.753,2.671,2.671,0,0,1-1.171.251,3.056,3.056,0,0,1-1.255-.251,2.277,2.277,0,0,1-.836-.669,1.908,1.908,0,0,1-.5-1,5.69,5.69,0,0,1-.167-1.255,6.456,6.456,0,0,1,.167-1.255,1.908,1.908,0,0,1,.5-1,3.275,3.275,0,0,1,.836-.669,2.793,2.793,0,0,1,1.255-.251,1.061,1.061,0,0,1,.5.084,1.189,1.189,0,0,1,.5.167,1.75,1.75,0,0,1,.5.335,1.008,1.008,0,0,1,.418.418h0V121.6h1v8.364h-1Zm-3.6-2.175a2.971,2.971,0,0,0,.335.753,1.124,1.124,0,0,0,.585.5,2.175,2.175,0,0,0,1.673,0,3.637,3.637,0,0,0,.585-.5,2.067,2.067,0,0,0,.335-.753,2.845,2.845,0,0,0,.084-.836,2.578,2.578,0,0,0-.084-.836,2.971,2.971,0,0,0-.335-.753,1.124,1.124,0,0,0-.585-.5,1.518,1.518,0,0,0-.92-.167,2.475,2.475,0,0,0-.836.167,3.638,3.638,0,0,0-.585.5,2.971,2.971,0,0,0-.335.753,2.845,2.845,0,0,0-.084.836C14.9,127.12,14.9,127.455,14.987,127.706Z" transform="translate(-13.9 -121.349)" fill="#fff"/>
    <path id="Pfad_72" data-name="Pfad 72" d="M26.8,129.855a2.654,2.654,0,0,1-1.673.5,2.793,2.793,0,0,1-1.255-.251,2.372,2.372,0,0,1-.92-.669,2.892,2.892,0,0,1-.585-1,6.456,6.456,0,0,1-.167-1.255,2.793,2.793,0,0,1,.251-1.255,2.892,2.892,0,0,1,.585-1,3.713,3.713,0,0,1,.92-.669A2.671,2.671,0,0,1,25.127,124a2.28,2.28,0,0,1,1.338.335,2.658,2.658,0,0,1,.836.836,2.923,2.923,0,0,1,.418,1.087,5.522,5.522,0,0,1,.084,1.171H23.287a2.316,2.316,0,0,0,.084.753,2.5,2.5,0,0,0,.335.669,1.5,1.5,0,0,0,.585.418,2.475,2.475,0,0,0,.836.167,1.333,1.333,0,0,0,1-.335,1.408,1.408,0,0,0,.5-.92h1A2.3,2.3,0,0,1,26.8,129.855Zm-.251-3.847a3.637,3.637,0,0,0-.335-.585,1.75,1.75,0,0,0-.5-.335,1.422,1.422,0,0,0-1.338,0,2.6,2.6,0,0,0-.5.335,1.348,1.348,0,0,0-.335.585,1.576,1.576,0,0,0-.167.669h3.513A4.932,4.932,0,0,1,26.549,126.007Z" transform="translate(-15.258 -121.742)" fill="#fff"/>
    <path id="Pfad_73" data-name="Pfad 73" d="M29.3,124.646v-.92h1v-.92a1.445,1.445,0,0,1,.418-1.087,1.731,1.731,0,0,1,1.255-.418h.335a.5.5,0,0,1,.335.084v.836c-.084,0-.167-.084-.251-.084h-.251a1.209,1.209,0,0,0-.585.167c-.167.084-.167.251-.167.5v.836h1.171v.92H31.391v5.186h-1v-5.186H29.3Z" transform="translate(-16.419 -121.3)" fill="#fff"/>
    <path id="Pfad_74" data-name="Pfad 74" d="M34.3,122.655V121.4h1v1.255Zm1,1.087v6.022h-1v-6.022Z" transform="translate(-17.237 -121.316)" fill="#fff"/>
    <path id="Pfad_75" data-name="Pfad 75" d="M38.22,124.167v.92h0A2.1,2.1,0,0,1,40.227,124a3.12,3.12,0,0,1,1,.167,1.821,1.821,0,0,1,.669.418,1.681,1.681,0,0,1,.335.669,3.136,3.136,0,0,1,.084.92v4.015h-1v-4.1a1.258,1.258,0,0,0-.335-.92,1.142,1.142,0,0,0-.92-.335,1.67,1.67,0,0,0-.753.167,1.5,1.5,0,0,0-.585.418,1.348,1.348,0,0,0-.335.585,2.316,2.316,0,0,0-.084.753v3.429h-1v-6.022Z" transform="translate(-17.728 -121.742)" fill="#fff"/>
    <path id="Pfad_76" data-name="Pfad 76" d="M49.3,129.855a2.654,2.654,0,0,1-1.673.5,2.793,2.793,0,0,1-1.255-.251,2.372,2.372,0,0,1-.92-.669,2.892,2.892,0,0,1-.585-1,6.456,6.456,0,0,1-.167-1.255,2.793,2.793,0,0,1,.251-1.255,2.892,2.892,0,0,1,.585-1,3.714,3.714,0,0,1,.92-.669A2.671,2.671,0,0,1,47.627,124a2.28,2.28,0,0,1,1.338.335,2.658,2.658,0,0,1,.836.836,2.923,2.923,0,0,1,.418,1.087,5.522,5.522,0,0,1,.084,1.171H45.787a2.316,2.316,0,0,0,.084.753,2.5,2.5,0,0,0,.335.669,1.5,1.5,0,0,0,.585.418,2.475,2.475,0,0,0,.836.167,1.333,1.333,0,0,0,1-.335,1.408,1.408,0,0,0,.5-.92h1A2.041,2.041,0,0,1,49.3,129.855Zm-.167-3.847a3.637,3.637,0,0,0-.335-.585,1.75,1.75,0,0,0-.5-.335,1.422,1.422,0,0,0-1.338,0,2.6,2.6,0,0,0-.5.335,1.348,1.348,0,0,0-.335.585,1.576,1.576,0,0,0-.167.669h3.513A1.647,1.647,0,0,1,49.133,126.007Z" transform="translate(-18.939 -121.742)" fill="#fff"/>
  </g>
  <g id="Gruppe_125" data-name="Gruppe 125" transform="translate(137.421 101.54)">
    <path id="Pfad_77" data-name="Pfad 77" d="M165.136,124.167v1.255h0a2.384,2.384,0,0,1,.92-1.087,2.28,2.28,0,0,1,1.338-.335v1.087a3.119,3.119,0,0,0-1,.167,1.3,1.3,0,0,0-.669.5,1.5,1.5,0,0,0-.335.753,4.072,4.072,0,0,0-.084,1v2.676h-1v-6.022Z" transform="translate(-164.3 -121.825)" fill="#fff"/>
    <path id="Pfad_78" data-name="Pfad 78" d="M172.8,129.855a2.654,2.654,0,0,1-1.673.5,2.793,2.793,0,0,1-1.255-.251,2.372,2.372,0,0,1-.92-.669,2.892,2.892,0,0,1-.585-1,6.456,6.456,0,0,1-.167-1.255,2.793,2.793,0,0,1,.251-1.255,2.892,2.892,0,0,1,.585-1,3.713,3.713,0,0,1,.92-.669,2.671,2.671,0,0,1,1.171-.251,2.28,2.28,0,0,1,1.338.335,2.658,2.658,0,0,1,.836.836,2.923,2.923,0,0,1,.418,1.087,5.521,5.521,0,0,1,.084,1.171h-4.517a2.315,2.315,0,0,0,.084.753,2.5,2.5,0,0,0,.335.669,1.5,1.5,0,0,0,.585.418,2.475,2.475,0,0,0,.836.167,1.333,1.333,0,0,0,1-.335,1.408,1.408,0,0,0,.5-.92h1A2.321,2.321,0,0,1,172.8,129.855Zm-.251-3.931a3.638,3.638,0,0,0-.335-.585,1.75,1.75,0,0,0-.5-.335,1.422,1.422,0,0,0-1.338,0,2.6,2.6,0,0,0-.5.335,1.348,1.348,0,0,0-.335.585,1.576,1.576,0,0,0-.167.669h3.513C172.717,126.342,172.717,126.175,172.549,125.924Z" transform="translate(-164.938 -121.825)" fill="#fff"/>
    <path id="Pfad_79" data-name="Pfad 79" d="M177.2,121.4v8.364h-1V121.4h1Z" transform="translate(-166.247 -121.4)" fill="#fff"/>
    <path id="Pfad_80" data-name="Pfad 80" d="M183.5,129.855a2.654,2.654,0,0,1-1.673.5,2.793,2.793,0,0,1-1.255-.251,2.372,2.372,0,0,1-.92-.669,2.892,2.892,0,0,1-.585-1,6.456,6.456,0,0,1-.167-1.255,2.793,2.793,0,0,1,.251-1.255,2.892,2.892,0,0,1,.585-1,3.714,3.714,0,0,1,.92-.669,2.671,2.671,0,0,1,1.171-.251,2.28,2.28,0,0,1,1.338.335,2.658,2.658,0,0,1,.836.836,2.923,2.923,0,0,1,.418,1.087,5.521,5.521,0,0,1,.084,1.171h-4.517a2.315,2.315,0,0,0,.084.753,2.5,2.5,0,0,0,.335.669,1.5,1.5,0,0,0,.585.418,2.475,2.475,0,0,0,.836.167,1.333,1.333,0,0,0,1-.335,1.408,1.408,0,0,0,.5-.92h1A2.673,2.673,0,0,1,183.5,129.855Zm-.251-3.931a3.638,3.638,0,0,0-.335-.585,1.75,1.75,0,0,0-.5-.335,1.422,1.422,0,0,0-1.338,0,2.6,2.6,0,0,0-.5.335,1.348,1.348,0,0,0-.335.585,1.576,1.576,0,0,0-.167.669h3.513A2.5,2.5,0,0,1,183.249,125.924Z" transform="translate(-166.688 -121.825)" fill="#fff"/>
    <path id="Pfad_81" data-name="Pfad 81" d="M192.088,130.238a1.67,1.67,0,0,1-.753.167.651.651,0,0,1-.585-.251,1.6,1.6,0,0,1-.251-.669,1.754,1.754,0,0,1-.92.669,4.824,4.824,0,0,1-1.171.251,2.315,2.315,0,0,1-.753-.084,2.5,2.5,0,0,1-.669-.335,2.218,2.218,0,0,1-.418-.5,2,2,0,0,1-.167-.753,2.475,2.475,0,0,1,.167-.836.754.754,0,0,1,.5-.5,1.681,1.681,0,0,1,.669-.335,2.442,2.442,0,0,1,.753-.167,2.316,2.316,0,0,1,.753-.084c.251,0,.5-.084.669-.084.167-.084.335-.084.418-.251a.639.639,0,0,0,.167-.418c0-.251,0-.418-.084-.5a.653.653,0,0,0-.335-.335c-.167-.084-.251-.084-.418-.167h-.5a2.315,2.315,0,0,0-1.087.251,1.079,1.079,0,0,0-.418.92h-1a1.686,1.686,0,0,1,.251-.92,1.318,1.318,0,0,1,.585-.585,2.5,2.5,0,0,1,.836-.335,3.749,3.749,0,0,1,1-.084,2.845,2.845,0,0,1,.836.084,1.349,1.349,0,0,1,.753.251.754.754,0,0,1,.5.5,1.376,1.376,0,0,1,.167.836v3.6c0,.084.084.167.251.167a.632.632,0,0,0,.335-.084v.585Zm-1.673-3.095a.707.707,0,0,1-.5.167,1.631,1.631,0,0,1-.669.084c-.251,0-.418.084-.669.084a1.209,1.209,0,0,0-.585.167.835.835,0,0,0-.418.335,1.209,1.209,0,0,0-.167.585.627.627,0,0,0,.084.418l.251.251c.084.084.251.084.335.167.167,0,.251.084.418.084a2.475,2.475,0,0,0,.836-.167,1.348,1.348,0,0,0,.585-.335,1.468,1.468,0,0,0,.335-.418.909.909,0,0,0,.084-.418v-1Z" transform="translate(-167.915 -121.874)" fill="#fff"/>
    <path id="Pfad_82" data-name="Pfad 82" d="M194.955,128.851c.084.167.251.251.335.335a.9.9,0,0,0,.5.167c.167,0,.418.084.585.084h.5a1.189,1.189,0,0,0,.5-.167,1.155,1.155,0,0,0,.335-.251.707.707,0,0,0,.167-.5.631.631,0,0,0-.335-.585,1.576,1.576,0,0,0-.753-.335c-.335-.084-.585-.167-.92-.251s-.669-.167-.92-.251a1.5,1.5,0,0,1-.753-.5,1.522,1.522,0,0,1-.335-.92,1.67,1.67,0,0,1,.167-.753,1.42,1.42,0,0,1,.5-.5,2.067,2.067,0,0,1,.753-.335,2.579,2.579,0,0,1,.836-.084,3.136,3.136,0,0,1,.92.084,2.066,2.066,0,0,1,.753.335,1.124,1.124,0,0,1,.5.585,1.686,1.686,0,0,1,.251.92h-1a1.189,1.189,0,0,0-.167-.5.653.653,0,0,0-.335-.335c-.167-.084-.251-.167-.418-.167s-.335-.084-.5-.084h-.418c-.167,0-.251.084-.418.084-.084.084-.251.167-.335.251a.627.627,0,0,0-.084.418.639.639,0,0,0,.167.418,1.362,1.362,0,0,0,.5.251,1.576,1.576,0,0,0,.669.167c.251.084.5.084.669.167.251.084.5.084.753.167a2.5,2.5,0,0,1,.669.335c.167.167.335.251.418.5a1.8,1.8,0,0,1-.084,1.673,1.954,1.954,0,0,1-.585.585,2.5,2.5,0,0,1-.836.335,3.431,3.431,0,0,1-.92.084,3.136,3.136,0,0,1-.92-.084,2.5,2.5,0,0,1-.836-.335,1.549,1.549,0,0,1-.585-.669,1.686,1.686,0,0,1-.251-.92h1A4.077,4.077,0,0,0,194.955,128.851Z" transform="translate(-169.11 -121.825)" fill="#fff"/>
    <path id="Pfad_83" data-name="Pfad 83" d="M205.5,129.855a2.654,2.654,0,0,1-1.673.5,2.793,2.793,0,0,1-1.255-.251,2.372,2.372,0,0,1-.92-.669,2.892,2.892,0,0,1-.585-1,6.456,6.456,0,0,1-.167-1.255,2.793,2.793,0,0,1,.251-1.255,2.892,2.892,0,0,1,.585-1,3.714,3.714,0,0,1,.92-.669,2.671,2.671,0,0,1,1.171-.251,2.28,2.28,0,0,1,1.338.335,2.658,2.658,0,0,1,.836.836,2.923,2.923,0,0,1,.418,1.087,5.523,5.523,0,0,1,.084,1.171h-4.517a2.315,2.315,0,0,0,.084.753,2.5,2.5,0,0,0,.335.669,1.5,1.5,0,0,0,.585.418,2.475,2.475,0,0,0,.836.167,1.333,1.333,0,0,0,1-.335,1.408,1.408,0,0,0,.5-.92h1A2.321,2.321,0,0,1,205.5,129.855Zm-.251-3.931a3.637,3.637,0,0,0-.335-.585,1.75,1.75,0,0,0-.5-.335,1.422,1.422,0,0,0-1.338,0,2.6,2.6,0,0,0-.5.335,1.348,1.348,0,0,0-.335.585,1.576,1.576,0,0,0-.167.669h3.513A2.5,2.5,0,0,1,205.249,125.924Z" transform="translate(-170.288 -121.825)" fill="#fff"/>
  </g>
  <g id="Gruppe_126" data-name="Gruppe 126" transform="translate(73.102 4.851)">
    <path id="Pfad_84" data-name="Pfad 84" d="M88.487,5.8V8.895h0a1.641,1.641,0,0,1,.753-.753,2.672,2.672,0,0,1,1.171-.251,3.056,3.056,0,0,1,1.255.251,2.277,2.277,0,0,1,.836.669,2.826,2.826,0,0,1,.5,1,5.691,5.691,0,0,1,.167,1.255A6.456,6.456,0,0,1,93,12.324a1.908,1.908,0,0,1-.5,1,3.275,3.275,0,0,1-.836.669,2.793,2.793,0,0,1-1.255.251,1.061,1.061,0,0,1-.5-.084A2.128,2.128,0,0,1,89.324,14l-.5-.251a1.008,1.008,0,0,1-.418-.418h0v.836h-1V5.8Zm3.6,4.517a2.971,2.971,0,0,0-.335-.753,1.124,1.124,0,0,0-.585-.5,2.175,2.175,0,0,0-1.673,0,3.638,3.638,0,0,0-.585.5,1.576,1.576,0,0,0-.335.753,2.846,2.846,0,0,0-.084.836,2.579,2.579,0,0,0,.084.836,2.971,2.971,0,0,0,.335.753,1.124,1.124,0,0,0,.585.5,1.518,1.518,0,0,0,.92.167,2.1,2.1,0,0,0,.836-.167,3.637,3.637,0,0,0,.585-.5,2.971,2.971,0,0,0,.335-.753,2.845,2.845,0,0,0,.084-.836C92.168,10.818,92.168,10.568,92.084,10.317Z" transform="translate(-87.4 -5.8)" fill="#fff"/>
    <path id="Pfad_85" data-name="Pfad 85" d="M99.9,14.622V13.7h0a2.658,2.658,0,0,1-.836.836,2.671,2.671,0,0,1-1.171.251,3.12,3.12,0,0,1-1-.167,1.821,1.821,0,0,1-.669-.418,1.681,1.681,0,0,1-.335-.669,3.136,3.136,0,0,1-.084-.92V8.6h1v4.1a1.258,1.258,0,0,0,.335.92,1.142,1.142,0,0,0,.92.335,1.67,1.67,0,0,0,.753-.167,1.5,1.5,0,0,0,.585-.418,1.348,1.348,0,0,0,.335-.585,2.316,2.316,0,0,0,.084-.753V8.6h1v6.022Z" transform="translate(-88.774 -6.258)" fill="#fff"/>
    <path id="Pfad_86" data-name="Pfad 86" d="M103.7,7.055V5.8h1V7.055Zm1,1.087v6.022h-1V8.142Z" transform="translate(-90.067 -5.8)" fill="#fff"/>
    <path id="Pfad_87" data-name="Pfad 87" d="M107.8,5.8v8.364h-1V5.8Z" transform="translate(-90.574 -5.8)" fill="#fff"/>
    <path id="Pfad_88" data-name="Pfad 88" d="M114.184,14.164v-.836h0a1.641,1.641,0,0,1-.753.753,2.672,2.672,0,0,1-1.171.251,3.056,3.056,0,0,1-1.255-.251,2.277,2.277,0,0,1-.836-.669,1.908,1.908,0,0,1-.5-1,5.691,5.691,0,0,1-.167-1.255,6.456,6.456,0,0,1,.167-1.255,1.908,1.908,0,0,1,.5-1,3.275,3.275,0,0,1,.836-.669,2.793,2.793,0,0,1,1.255-.251,1.061,1.061,0,0,1,.5.084,1.189,1.189,0,0,1,.5.167,1.75,1.75,0,0,1,.5.335,1.008,1.008,0,0,1,.418.418h0V5.8h1v8.364Zm-3.6-2.091a2.971,2.971,0,0,0,.335.753,1.124,1.124,0,0,0,.585.5,2.175,2.175,0,0,0,1.673,0,3.638,3.638,0,0,0,.585-.5,2.067,2.067,0,0,0,.335-.753,2.846,2.846,0,0,0,.084-.836,2.579,2.579,0,0,0-.084-.836,2.971,2.971,0,0,0-.335-.753,1.124,1.124,0,0,0-.585-.5,2.582,2.582,0,0,0-.92-.167,2.475,2.475,0,0,0-.836.167,3.637,3.637,0,0,0-.585.5,2.971,2.971,0,0,0-.335.753,2.845,2.845,0,0,0-.084.836C110.5,11.488,110.5,11.738,110.587,12.073Z" transform="translate(-91.015 -5.8)" fill="#fff"/>
  </g>
</svg>
