<svg xmlns="http://www.w3.org/2000/svg" width="23.28" height="27.338" viewBox="0 0 23.28 27.338">
  <g id="Gruppe_3" data-name="Gruppe 3" transform="translate(0)">
    <path id="Pfad_1" data-name="Pfad 1" d="M42.2,93.811a1.256,1.256,0,0,0-1.091-.744h-3.95a.566.566,0,0,0-.529.248.54.54,0,0,0,.017.612l2.661,4.611c.011.011.011.017,0,.017l-4.182,7.4a.577.577,0,0,0,0,.6.553.553,0,0,0,.513.281h3.95a1.271,1.271,0,0,0,1.074-.76q4.083-7.239,4.248-7.537Z" transform="translate(-35.046 -87.679)" fill="#aa2c57"/>
    <path id="Pfad_2" data-name="Pfad 2" d="M202.406.86a.557.557,0,0,0,0-.611A.55.55,0,0,0,201.894,0h-3.983a1.212,1.212,0,0,0-1.058.744l-8.777,15.57,5.6,10.281a1.208,1.208,0,0,0,1.091.744h3.951a.59.59,0,0,0,.529-.248.584.584,0,0,0-.017-.612l-5.553-10.165V16.3Z" transform="translate(-179.217)" fill="#aa2c57"/>
  </g>
</svg>
